<?xml version="1.0" encoding="utf-8"?>
<!-- Generator: Adobe Illustrator 21.0.0, SVG Export Plug-In . SVG Version: 6.00 Build 0)  -->
<svg version="1.1" id="图层_1" xmlns="http://www.w3.org/2000/svg" xmlns:xlink="http://www.w3.org/1999/xlink" x="0px" y="0px"
	 viewBox="0 0 1366 768" style="enable-background:new 0 0 1366 768;" xml:space="preserve">
<style type="text/css">
	.st0{fill:#910003;}
	.st1{fill:#79C3E6;}
	.st2{fill:#DDDEDF;}
	.st3{fill:#910003;stroke:#910003;stroke-miterlimit:10;}
	.st4{font-family:'Verdana';}
	.st5{font-size:96.0291px;}
	.st6{fill:#6D0005;stroke:#760003;stroke-miterlimit:10;}
	.st7{font-family:'SimHei';}
	.st8{font-size:44.5261px;}
	.st9{fill:#090100;stroke:#160300;stroke-miterlimit:10;}
	.st10{fill:#666666;}
	.st11{font-size:29.6841px;}
</style>
<g>
	<path class="st0" d="M171.5,267.5c0,5.6-2.4,10.4-7.1,14.4c-4.7,4-11,6.3-18.7,6.8v18H137V289c-3.7,0-8-0.5-12.9-1.3
		c-4.9-0.9-8.7-1.9-11.4-3.2v-14.5h2.2c3,1.7,6.6,3,10.5,4c4,1,7.9,1.6,11.8,1.9v-13.6l-4.8-1.1c-3-0.7-5.9-1.5-8.4-2.4
		c-2.6-0.9-4.8-2.2-6.6-3.7c-1.9-1.5-3.3-3.4-4.3-5.6c-1-2.2-1.5-5-1.5-8.3c0-4.9,2.2-9.2,6.8-12.7c4.5-3.5,10.8-5.6,18.7-6.4v-11.6
		h8.7v11.5c3,0.1,6.6,0.6,10.7,1.3c4.1,0.7,7.3,1.6,9.7,2.5v14.3h-2.2c-2.4-1.4-5.1-2.5-8.2-3.4c-3.1-0.9-6.4-1.5-10-1.7v12.6l4,0.8
		c7.5,1.5,13,3.7,16.5,6.6C169.7,258,171.5,262.1,171.5,267.5z M137.8,246.5V235c-2.2,0.2-4.1,0.7-5.9,1.7c-1.7,0.9-2.6,2.3-2.6,4
		c0,1.6,0.6,2.8,1.7,3.6C132.1,245.1,134.4,245.9,137.8,246.5z M153.4,269.4c0-1.9-0.9-3.4-2.7-4.3c-1.8-0.9-3.5-1.6-5.3-1.8v12.3
		c2.2-0.3,4.1-0.9,5.6-1.9C152.6,272.7,153.4,271.3,153.4,269.4z"/>
</g>
<g>
	<path class="st0" d="M255.8,267.8c-0.1,5.6-2.5,10.4-7.2,14.3c-4.8,4-11,6.2-18.8,6.6l-0.2,18l-8.6-0.1l0.2-17.7
		c-3.7-0.1-8-0.6-12.9-1.5c-4.9-0.9-8.7-2-11.4-3.4l0.2-14.5l2.2,0c3,1.7,6.5,3.1,10.5,4.1c3.9,1,7.9,1.7,11.8,2.1l0.1-13.6
		l-4.8-1.1c-3-0.7-5.8-1.6-8.4-2.5c-2.6-1-4.8-2.2-6.6-3.7c-1.8-1.5-3.3-3.4-4.3-5.7c-1-2.2-1.5-5-1.4-8.3c0.1-4.9,2.4-9.1,6.9-12.6
		c4.5-3.5,10.8-5.5,18.8-6.2l0.1-11.6l8.6,0.1l-0.1,11.5c3.1,0.2,6.6,0.6,10.7,1.4c4.1,0.8,7.3,1.7,9.6,2.6l-0.2,14.3l-2.2,0
		c-2.3-1.4-5.1-2.5-8.2-3.5c-3.1-0.9-6.4-1.5-10-1.8l-0.1,12.6l4,0.8c7.5,1.5,13,3.8,16.5,6.8C254.2,258.3,255.9,262.5,255.8,267.8z
		 M222.4,246.5l0.1-11.5c-2.2,0.1-4.2,0.7-5.9,1.6c-1.8,0.9-2.6,2.3-2.7,4c0,1.6,0.5,2.8,1.6,3.6C216.7,245,219,245.8,222.4,246.5z
		 M237.8,269.5c0-1.9-0.8-3.4-2.6-4.3c-1.8-1-3.5-1.6-5.3-1.9l-0.1,12.3c2.2-0.3,4.1-0.9,5.6-1.9
		C236.9,272.8,237.7,271.4,237.8,269.5z"/>
</g>
<g>
	<path class="st0" d="M340.4,267.5c0,5.6-2.4,10.4-7.1,14.4c-4.7,4-11,6.3-18.7,6.8v18h-8.7V289c-3.7,0-8-0.5-12.9-1.3
		c-4.9-0.9-8.7-1.9-11.4-3.2v-14.5h2.2c3,1.7,6.6,3,10.5,4c4,1,7.9,1.6,11.8,1.9v-13.6l-4.8-1.1c-3-0.7-5.9-1.5-8.4-2.4
		c-2.6-0.9-4.8-2.2-6.6-3.7c-1.9-1.5-3.3-3.4-4.3-5.6c-1-2.2-1.5-5-1.5-8.3c0-4.9,2.3-9.2,6.8-12.7c4.5-3.5,10.8-5.6,18.7-6.4v-11.6
		h8.7v11.5c3,0.1,6.6,0.6,10.7,1.3c4.1,0.7,7.3,1.6,9.7,2.5v14.3h-2.2c-2.4-1.4-5.1-2.5-8.2-3.4c-3.1-0.9-6.4-1.5-10-1.7v12.6l4,0.8
		c7.5,1.5,13,3.7,16.5,6.6C338.6,258,340.4,262.1,340.4,267.5z M306.7,246.5V235c-2.2,0.2-4.2,0.7-5.9,1.7c-1.7,0.9-2.6,2.3-2.6,4
		c0,1.6,0.6,2.8,1.7,3.6C301.1,245.1,303.3,245.9,306.7,246.5z M322.3,269.4c0-1.9-0.9-3.4-2.7-4.3c-1.8-0.9-3.5-1.6-5.3-1.8v12.3
		c2.2-0.3,4.1-0.9,5.6-1.9C321.6,272.7,322.3,271.3,322.3,269.4z"/>
</g>
<g>
	<path class="st0" d="M424.8,267.5c0,5.6-2.4,10.4-7.1,14.4c-4.7,4-11,6.3-18.7,6.8v18h-8.7V289c-3.7,0-8-0.5-12.9-1.3
		c-4.9-0.9-8.7-1.9-11.4-3.2v-14.5h2.2c3,1.7,6.6,3,10.5,4c4,1,7.9,1.6,11.8,1.9v-13.6l-4.8-1.1c-3-0.7-5.9-1.5-8.4-2.4
		c-2.6-0.9-4.8-2.2-6.6-3.7c-1.9-1.5-3.3-3.4-4.3-5.6c-1-2.2-1.5-5-1.5-8.3c0-4.9,2.2-9.2,6.8-12.7c4.5-3.5,10.8-5.6,18.7-6.4v-11.6
		h8.7v11.5c3,0.1,6.6,0.6,10.7,1.3c4.1,0.7,7.3,1.6,9.7,2.5v14.3h-2.2c-2.4-1.4-5.1-2.5-8.2-3.4c-3.1-0.9-6.4-1.5-10-1.7v12.6l4,0.8
		c7.5,1.5,13,3.7,16.5,6.6C423.1,258,424.8,262.1,424.8,267.5z M391.2,246.5V235c-2.2,0.2-4.1,0.7-5.9,1.7c-1.7,0.9-2.6,2.3-2.6,4
		c0,1.6,0.6,2.8,1.7,3.6C385.5,245.1,387.8,245.9,391.2,246.5z M406.8,269.4c0-1.9-0.9-3.4-2.7-4.3c-1.8-0.9-3.5-1.6-5.3-1.8v12.3
		c2.2-0.3,4.1-0.9,5.6-1.9C406,272.7,406.8,271.3,406.8,269.4z"/>
</g>
<g>
	<path class="st0" d="M509.3,267.5c0,5.6-2.4,10.4-7.1,14.4c-4.7,4-11,6.3-18.7,6.8v18h-8.7V289c-3.7,0-8-0.5-12.9-1.3
		c-4.9-0.9-8.7-1.9-11.4-3.2v-14.5h2.2c3,1.7,6.6,3,10.5,4c4,1,7.9,1.6,11.8,1.9v-13.6l-4.8-1.1c-3-0.7-5.9-1.5-8.4-2.4
		c-2.6-0.9-4.8-2.2-6.6-3.7c-1.9-1.5-3.3-3.4-4.3-5.6c-1-2.2-1.5-5-1.5-8.3c0-4.9,2.3-9.2,6.8-12.7c4.5-3.5,10.8-5.6,18.7-6.4v-11.6
		h8.7v11.5c3,0.1,6.6,0.6,10.7,1.3c4.1,0.7,7.3,1.6,9.7,2.5v14.3h-2.2c-2.4-1.4-5.1-2.5-8.2-3.4c-3.1-0.9-6.4-1.5-10-1.7v12.6l4,0.8
		c7.5,1.5,13,3.7,16.5,6.6C507.5,258,509.3,262.1,509.3,267.5z M475.7,246.5V235c-2.2,0.2-4.2,0.7-5.9,1.7c-1.7,0.9-2.6,2.3-2.6,4
		c0,1.6,0.6,2.8,1.7,3.6C470,245.1,472.2,245.9,475.7,246.5z M491.3,269.4c0-1.9-0.9-3.4-2.7-4.3c-1.8-0.9-3.5-1.6-5.3-1.8v12.3
		c2.2-0.3,4.1-0.9,5.6-1.9C490.5,272.7,491.3,271.3,491.3,269.4z"/>
</g>
<g>
	<path class="st1" d="M593.8,267.5c0,5.6-2.4,10.4-7.1,14.4c-4.7,4-11,6.3-18.7,6.8v18h-8.6V289c-3.7,0-8-0.5-12.9-1.3
		c-4.9-0.9-8.7-1.9-11.4-3.2v-14.5h2.2c3,1.7,6.5,3,10.5,4c4,1,7.9,1.6,11.8,1.9v-13.6l-4.8-1.1c-3-0.7-5.9-1.5-8.4-2.4
		c-2.6-0.9-4.8-2.2-6.6-3.7c-1.9-1.5-3.3-3.4-4.3-5.6c-1-2.2-1.5-5-1.5-8.3c0-4.9,2.3-9.2,6.8-12.7c4.5-3.5,10.8-5.6,18.7-6.4v-11.6
		h8.6v11.5c3.1,0.1,6.6,0.6,10.7,1.3c4.1,0.7,7.3,1.6,9.7,2.5v14.3h-2.2c-2.4-1.4-5.1-2.5-8.2-3.4c-3.1-0.9-6.4-1.5-10-1.7v12.6
		l4,0.8c7.5,1.5,13,3.7,16.5,6.6C592,258,593.8,262.1,593.8,267.5z M560.1,246.5V235c-2.2,0.2-4.2,0.7-5.9,1.7
		c-1.7,0.9-2.6,2.3-2.6,4c0,1.6,0.6,2.8,1.7,3.6C554.4,245.1,556.7,245.9,560.1,246.5z M575.7,269.4c0-1.9-0.9-3.4-2.7-4.3
		c-1.8-0.9-3.5-1.6-5.3-1.8v12.3c2.2-0.3,4.1-0.9,5.6-1.9C574.9,272.7,575.7,271.3,575.7,269.4z"/>
</g>
<g>
	<path class="st1" d="M678.2,267.5c0,5.6-2.4,10.4-7.1,14.4c-4.7,4-11,6.3-18.7,6.8v18h-8.6V289c-3.7,0-8-0.5-12.9-1.3
		c-4.9-0.9-8.7-1.9-11.4-3.2v-14.5h2.2c3,1.7,6.5,3,10.5,4c4,1,7.9,1.6,11.8,1.9v-13.6l-4.8-1.1c-3-0.7-5.9-1.5-8.4-2.4
		c-2.6-0.9-4.8-2.2-6.6-3.7c-1.9-1.5-3.3-3.4-4.3-5.6c-1-2.2-1.5-5-1.5-8.3c0-4.9,2.3-9.2,6.8-12.7c4.5-3.5,10.8-5.6,18.7-6.4v-11.6
		h8.6v11.5c3,0.1,6.6,0.6,10.7,1.3c4.1,0.7,7.3,1.6,9.7,2.5v14.3h-2.2c-2.4-1.4-5.1-2.5-8.2-3.4c-3.1-0.9-6.4-1.5-10-1.7v12.6l4,0.8
		c7.5,1.5,13,3.7,16.5,6.6C676.5,258,678.2,262.1,678.2,267.5z M644.6,246.5V235c-2.2,0.2-4.2,0.7-5.9,1.7c-1.7,0.9-2.6,2.3-2.6,4
		c0,1.6,0.6,2.8,1.7,3.6C638.9,245.1,641.2,245.9,644.6,246.5z M660.2,269.4c0-1.9-0.9-3.4-2.7-4.3c-1.8-0.9-3.5-1.6-5.3-1.8v12.3
		c2.2-0.3,4.1-0.9,5.6-1.9C659.4,272.7,660.2,271.3,660.2,269.4z"/>
</g>
<g>
	<path class="st2" d="M760.3,267.5c0,5.6-2.4,10.4-7.1,14.4c-4.7,4-10.9,6.3-18.7,6.8v18h-8.6V289c-3.7,0-8-0.5-12.9-1.3
		c-4.9-0.9-8.7-1.9-11.4-3.2v-14.5h2.2c3.1,1.7,6.5,3,10.5,4c4,1,7.9,1.6,11.8,1.9v-13.6l-4.8-1.1c-3-0.7-5.9-1.5-8.4-2.4
		c-2.6-0.9-4.8-2.2-6.6-3.7c-1.9-1.5-3.3-3.4-4.3-5.6c-1-2.2-1.5-5-1.5-8.3c0-4.9,2.3-9.2,6.8-12.7c4.5-3.5,10.8-5.6,18.7-6.4v-11.6
		h8.6v11.5c3.1,0.1,6.6,0.6,10.7,1.3c4.1,0.7,7.3,1.6,9.7,2.5v14.3h-2.2c-2.4-1.4-5.1-2.5-8.2-3.4c-3.1-0.9-6.4-1.5-10-1.7v12.6
		l4,0.8c7.5,1.5,13,3.7,16.5,6.6C758.5,258,760.3,262.1,760.3,267.5z M726.7,246.5V235c-2.2,0.2-4.2,0.7-5.9,1.7
		c-1.7,0.9-2.6,2.3-2.6,4c0,1.6,0.6,2.8,1.7,3.6C721,245.1,723.2,245.9,726.7,246.5z M742.3,269.4c0-1.9-0.9-3.4-2.7-4.3
		c-1.8-0.9-3.5-1.6-5.3-1.8v12.3c2.2-0.3,4.1-0.9,5.6-1.9C741.5,272.7,742.3,271.3,742.3,269.4z"/>
</g>
<g>
	<path class="st2" d="M844.8,267.5c0,5.6-2.4,10.4-7.1,14.4c-4.7,4-11,6.3-18.7,6.8v18h-8.7V289c-3.7,0-8-0.5-12.9-1.3
		c-4.9-0.9-8.7-1.9-11.4-3.2v-14.5h2.2c3,1.7,6.5,3,10.5,4c4,1,7.9,1.6,11.8,1.9v-13.6l-4.8-1.1c-3-0.7-5.9-1.5-8.4-2.4
		c-2.6-0.9-4.8-2.2-6.6-3.7c-1.9-1.5-3.3-3.4-4.3-5.6c-1-2.2-1.5-5-1.5-8.3c0-4.9,2.3-9.2,6.8-12.7c4.5-3.5,10.8-5.6,18.7-6.4v-11.6
		h8.7v11.5c3,0.1,6.6,0.6,10.7,1.3c4.1,0.7,7.3,1.6,9.7,2.5v14.3h-2.2c-2.4-1.4-5.1-2.5-8.2-3.4c-3.1-0.9-6.4-1.5-10-1.7v12.6l4,0.8
		c7.5,1.5,13,3.7,16.5,6.6C843,258,844.8,262.1,844.8,267.5z M811.1,246.5V235c-2.2,0.2-4.2,0.7-5.9,1.7c-1.7,0.9-2.6,2.3-2.6,4
		c0,1.6,0.6,2.8,1.7,3.6C805.4,245.1,807.7,245.9,811.1,246.5z M826.7,269.4c0-1.9-0.9-3.4-2.7-4.3c-1.8-0.9-3.5-1.6-5.3-1.8v12.3
		c2.2-0.3,4.1-0.9,5.6-1.9C825.9,272.7,826.7,271.3,826.7,269.4z"/>
</g>
<g>
	<g>
		<path class="st2" d="M752.1,511.2c0,5.5-2.3,10.3-7,14.3c-4.7,4-10.8,6.2-18.6,6.7V550H718v-17.6c-3.7,0-7.9-0.5-12.7-1.3
			c-4.8-0.9-8.6-1.9-11.3-3.2v-14.4h2.2c3,1.6,6.5,3,10.4,3.9c3.9,1,7.8,1.6,11.7,1.9v-13.5l-4.8-1.1c-3-0.7-5.8-1.5-8.3-2.4
			c-2.5-0.9-4.7-2.1-6.6-3.6c-1.8-1.5-3.3-3.4-4.3-5.6c-1-2.2-1.5-4.9-1.5-8.2c0-4.9,2.2-9.1,6.7-12.5c4.5-3.5,10.6-5.6,18.6-6.3
			v-11.5h8.6v11.4c3,0.1,6.6,0.6,10.6,1.3c4.1,0.7,7.2,1.6,9.6,2.5V484h-2.2c-2.3-1.3-5-2.5-8.1-3.3c-3.1-0.9-6.4-1.4-9.9-1.7v12.5
			l3.9,0.8c7.4,1.4,12.9,3.6,16.4,6.6C750.3,501.8,752.1,505.9,752.1,511.2z M718.8,490.4V479c-2.2,0.2-4.1,0.7-5.8,1.6
			c-1.7,0.9-2.6,2.3-2.6,4c0,1.5,0.6,2.7,1.7,3.6C713.1,489.1,715.4,489.8,718.8,490.4z M734.2,513.1c0-1.9-0.9-3.3-2.6-4.3
			c-1.8-0.9-3.5-1.5-5.2-1.8v12.2c2.2-0.3,4-0.9,5.6-1.9C733.4,516.4,734.2,514.9,734.2,513.1z"/>
	</g>
	<g>
		<path class="st2" d="M835.7,511.2c0,5.5-2.3,10.3-7,14.3c-4.7,4-10.8,6.2-18.6,6.7V550h-8.6v-17.6c-3.7,0-7.9-0.5-12.7-1.3
			c-4.8-0.9-8.6-1.9-11.3-3.2v-14.4h2.2c3,1.6,6.5,3,10.4,3.9c3.9,1,7.8,1.6,11.7,1.9v-13.5l-4.8-1.1c-3-0.7-5.8-1.5-8.3-2.4
			c-2.5-0.9-4.7-2.1-6.6-3.6c-1.8-1.5-3.3-3.4-4.3-5.6c-1-2.2-1.5-4.9-1.5-8.2c0-4.9,2.2-9.1,6.7-12.5c4.5-3.5,10.6-5.6,18.6-6.3
			v-11.5h8.6v11.4c3,0.1,6.6,0.6,10.6,1.3c4.1,0.7,7.2,1.6,9.6,2.5V484h-2.2c-2.3-1.3-5-2.5-8.1-3.3c-3.1-0.9-6.4-1.4-9.9-1.7v12.5
			l3.9,0.8c7.4,1.4,12.9,3.6,16.4,6.6C834,501.8,835.7,505.9,835.7,511.2z M802.4,490.4V479c-2.2,0.2-4.1,0.7-5.8,1.6
			c-1.7,0.9-2.6,2.3-2.6,4c0,1.5,0.6,2.7,1.7,3.6C796.8,489.1,799,489.8,802.4,490.4z M817.8,513.1c0-1.9-0.9-3.3-2.6-4.3
			c-1.8-0.9-3.5-1.5-5.2-1.8v12.2c2.2-0.3,4-0.9,5.6-1.9C817.1,516.4,817.8,514.9,817.8,513.1z"/>
		<g>
			<path class="st2" d="M927.6,511.2c0,5.5-2.3,10.3-7,14.3c-4.7,4-10.8,6.2-18.6,6.7V550h-8.6v-17.6c-3.7,0-7.9-0.5-12.7-1.3
				c-4.8-0.9-8.6-1.9-11.3-3.2v-14.4h2.2c3,1.6,6.5,3,10.4,3.9c3.9,1,7.8,1.6,11.7,1.9v-13.5l-4.8-1.1c-3-0.7-5.8-1.5-8.3-2.4
				c-2.5-0.9-4.7-2.1-6.6-3.6c-1.8-1.5-3.3-3.4-4.3-5.6c-1-2.2-1.5-4.9-1.5-8.2c0-4.9,2.2-9.1,6.7-12.5c4.5-3.5,10.6-5.6,18.6-6.3
				v-11.5h8.6v11.4c3,0.1,6.6,0.6,10.6,1.3c4.1,0.7,7.2,1.6,9.6,2.5V484h-2.2c-2.3-1.3-5-2.5-8.1-3.3c-3.1-0.9-6.4-1.4-9.9-1.7v12.5
				l3.9,0.8c7.4,1.4,12.9,3.6,16.4,6.6C925.9,501.8,927.6,505.9,927.6,511.2z M894.3,490.4V479c-2.2,0.2-4.1,0.7-5.8,1.6
				c-1.7,0.9-2.6,2.3-2.6,4c0,1.5,0.6,2.7,1.7,3.6C888.7,489.1,890.9,489.8,894.3,490.4z M909.7,513.1c0-1.9-0.9-3.3-2.6-4.3
				c-1.8-0.9-3.5-1.5-5.2-1.8v12.2c2.2-0.3,4-0.9,5.6-1.9C909,516.4,909.7,514.9,909.7,513.1z"/>
		</g>
	</g>
	<g>
		<path class="st0" d="M170.1,511.2c0,5.5-2.3,10.3-7,14.3c-4.7,4-10.8,6.2-18.6,6.7V550H136v-17.6c-3.7,0-7.9-0.5-12.7-1.3
			c-4.8-0.9-8.6-1.9-11.3-3.2v-14.4h2.2c3,1.6,6.5,3,10.4,3.9c3.9,1,7.8,1.6,11.7,1.9v-13.5l-4.8-1.1c-3-0.7-5.8-1.5-8.3-2.4
			c-2.5-0.9-4.7-2.1-6.6-3.6c-1.8-1.5-3.3-3.4-4.3-5.6c-1-2.2-1.5-4.9-1.5-8.2c0-4.9,2.2-9.1,6.7-12.5c4.5-3.5,10.6-5.6,18.5-6.3
			v-11.5h8.6v11.4c3,0.1,6.6,0.6,10.6,1.3c4.1,0.7,7.2,1.6,9.6,2.5V484h-2.2c-2.3-1.3-5-2.5-8.1-3.3c-3.1-0.9-6.4-1.4-9.9-1.7v12.5
			l3.9,0.8c7.4,1.4,12.9,3.6,16.4,6.6C168.4,501.8,170.1,505.9,170.1,511.2z M136.8,490.4V479c-2.2,0.2-4.1,0.7-5.8,1.6
			c-1.7,0.9-2.6,2.3-2.6,4c0,1.5,0.6,2.7,1.7,3.6C131.2,489.1,133.4,489.8,136.8,490.4z M152.2,513.1c0-1.9-0.9-3.3-2.6-4.3
			c-1.8-0.9-3.5-1.5-5.2-1.8v12.2c2.2-0.3,4-0.9,5.6-1.9C151.5,516.4,152.2,514.9,152.2,513.1z"/>
	</g>
	<g>
		<path class="st2" d="M253.7,511.2c0,5.5-2.3,10.3-7,14.3c-4.7,4-10.8,6.2-18.6,6.7V550h-8.6v-17.6c-3.7,0-7.9-0.5-12.7-1.3
			c-4.8-0.9-8.6-1.9-11.3-3.2v-14.4h2.2c3,1.6,6.5,3,10.4,3.9c3.9,1,7.8,1.6,11.7,1.9v-13.5l-4.8-1.1c-3-0.7-5.8-1.5-8.3-2.4
			c-2.5-0.9-4.7-2.1-6.6-3.6c-1.8-1.5-3.3-3.4-4.3-5.6c-1-2.2-1.5-4.9-1.5-8.2c0-4.9,2.2-9.1,6.7-12.5c4.5-3.5,10.6-5.6,18.6-6.3
			v-11.5h8.6v11.4c3,0.1,6.6,0.6,10.6,1.3c4.1,0.7,7.2,1.6,9.6,2.5V484h-2.2c-2.3-1.3-5-2.5-8.1-3.3c-3.1-0.9-6.4-1.4-9.9-1.7v12.5
			l3.9,0.8c7.4,1.4,12.9,3.6,16.4,6.6C252,501.8,253.7,505.9,253.7,511.2z M220.4,490.4V479c-2.2,0.2-4.1,0.7-5.8,1.6
			c-1.7,0.9-2.6,2.3-2.6,4c0,1.5,0.6,2.7,1.7,3.6C214.8,489.1,217,489.8,220.4,490.4z M235.9,513.1c0-1.9-0.9-3.3-2.6-4.3
			c-1.8-0.9-3.5-1.5-5.2-1.8v12.2c2.2-0.3,4-0.9,5.6-1.9C235.1,516.4,235.9,514.9,235.9,513.1z"/>
	</g>
	<g>
		<path class="st2" d="M337.3,511.2c0,5.5-2.3,10.3-7,14.3c-4.7,4-10.8,6.2-18.6,6.7V550h-8.6v-17.6c-3.7,0-7.9-0.5-12.7-1.3
			c-4.8-0.9-8.6-1.9-11.3-3.2v-14.4h2.2c3,1.6,6.5,3,10.4,3.9c3.9,1,7.8,1.6,11.7,1.9v-13.5l-4.8-1.1c-3-0.7-5.8-1.5-8.3-2.4
			c-2.5-0.9-4.7-2.1-6.6-3.6c-1.8-1.5-3.3-3.4-4.3-5.6c-1-2.2-1.5-4.9-1.5-8.2c0-4.9,2.2-9.1,6.7-12.5c4.5-3.5,10.6-5.6,18.6-6.3
			v-11.5h8.6v11.4c3,0.1,6.6,0.6,10.6,1.3c4.1,0.7,7.2,1.6,9.6,2.5V484h-2.2c-2.3-1.3-5-2.5-8.1-3.3c-3.1-0.9-6.4-1.4-9.9-1.7v12.5
			l3.9,0.8c7.4,1.4,12.9,3.6,16.4,6.6C335.6,501.8,337.3,505.9,337.3,511.2z M304,490.4V479c-2.2,0.2-4.1,0.7-5.8,1.6
			c-1.7,0.9-2.6,2.3-2.6,4c0,1.5,0.6,2.7,1.7,3.6C298.4,489.1,300.7,489.8,304,490.4z M319.5,513.1c0-1.9-0.9-3.3-2.6-4.3
			c-1.8-0.9-3.5-1.5-5.2-1.8v12.2c2.2-0.3,4-0.9,5.6-1.9C318.7,516.4,319.5,514.9,319.5,513.1z"/>
	</g>
	<g>
		<path class="st2" d="M421,511.2c0,5.5-2.3,10.3-7,14.3c-4.7,4-10.8,6.2-18.6,6.7V550h-8.6v-17.6c-3.7,0-7.9-0.5-12.7-1.3
			c-4.8-0.9-8.6-1.9-11.3-3.2v-14.4h2.2c3,1.6,6.5,3,10.4,3.9c3.9,1,7.8,1.6,11.7,1.9v-13.5l-4.8-1.1c-3-0.7-5.8-1.5-8.3-2.4
			c-2.5-0.9-4.7-2.1-6.6-3.6c-1.8-1.5-3.3-3.4-4.3-5.6c-1-2.2-1.5-4.9-1.5-8.2c0-4.9,2.2-9.1,6.7-12.5c4.5-3.5,10.6-5.6,18.6-6.3
			v-11.5h8.6v11.4c3,0.1,6.6,0.6,10.6,1.3c4.1,0.7,7.2,1.6,9.6,2.5V484h-2.2c-2.3-1.3-5-2.5-8.1-3.3c-3.1-0.9-6.4-1.4-9.9-1.7v12.5
			l3.9,0.8c7.4,1.4,12.9,3.6,16.4,6.6C419.2,501.8,421,505.9,421,511.2z M387.7,490.4V479c-2.2,0.2-4.1,0.7-5.8,1.6
			c-1.7,0.9-2.6,2.3-2.6,4c0,1.5,0.6,2.7,1.7,3.6C382,489.1,384.3,489.8,387.7,490.4z M403.1,513.1c0-1.9-0.9-3.3-2.6-4.3
			c-1.8-0.9-3.5-1.5-5.2-1.8v12.2c2.2-0.3,4-0.9,5.6-1.9C402.3,516.4,403.1,514.9,403.1,513.1z"/>
	</g>
	<g>
		<path class="st2" d="M504.6,511.2c0,5.5-2.3,10.3-7,14.3c-4.7,4-10.8,6.2-18.6,6.7V550h-8.6v-17.6c-3.7,0-7.9-0.5-12.7-1.3
			c-4.8-0.9-8.6-1.9-11.3-3.2v-14.4h2.2c3,1.6,6.5,3,10.4,3.9c3.9,1,7.8,1.6,11.7,1.9v-13.5l-4.8-1.1c-3-0.7-5.8-1.5-8.3-2.4
			c-2.5-0.9-4.7-2.1-6.6-3.6c-1.8-1.5-3.3-3.4-4.3-5.6c-1-2.2-1.5-4.9-1.5-8.2c0-4.9,2.2-9.1,6.7-12.5c4.5-3.5,10.6-5.6,18.6-6.3
			v-11.5h8.6v11.4c3,0.1,6.6,0.6,10.6,1.3c4.1,0.7,7.2,1.6,9.6,2.5V484h-2.2c-2.3-1.3-5-2.5-8.1-3.3c-3.1-0.9-6.4-1.4-9.9-1.7v12.5
			l3.9,0.8c7.4,1.4,12.9,3.6,16.4,6.6C502.8,501.8,504.6,505.9,504.6,511.2z M471.3,490.4V479c-2.2,0.2-4.1,0.7-5.8,1.6
			c-1.7,0.9-2.6,2.3-2.6,4c0,1.5,0.6,2.7,1.7,3.6C465.6,489.1,467.9,489.8,471.3,490.4z M486.7,513.1c0-1.9-0.9-3.3-2.6-4.3
			c-1.8-0.9-3.5-1.5-5.2-1.8v12.2c2.2-0.3,4-0.9,5.6-1.9C486,516.4,486.7,514.9,486.7,513.1z"/>
	</g>
	<g>
		<path class="st2" d="M588.2,511.2c0,5.5-2.3,10.3-7,14.3c-4.7,4-10.8,6.2-18.6,6.7V550h-8.6v-17.6c-3.7,0-7.9-0.5-12.7-1.3
			c-4.8-0.9-8.6-1.9-11.3-3.2v-14.4h2.2c3,1.6,6.5,3,10.4,3.9c3.9,1,7.8,1.6,11.7,1.9v-13.5l-4.8-1.1c-3-0.7-5.8-1.5-8.3-2.4
			c-2.5-0.9-4.7-2.1-6.6-3.6c-1.8-1.5-3.3-3.4-4.3-5.6c-1-2.2-1.5-4.9-1.5-8.2c0-4.9,2.2-9.1,6.7-12.5c4.5-3.5,10.6-5.6,18.6-6.3
			v-11.5h8.6v11.4c3,0.1,6.6,0.6,10.6,1.3c4.1,0.7,7.2,1.6,9.6,2.5V484h-2.2c-2.3-1.3-5-2.5-8.1-3.3c-3.1-0.9-6.4-1.4-9.9-1.7v12.5
			l3.9,0.8c7.4,1.4,12.9,3.6,16.4,6.6C586.5,501.8,588.2,505.9,588.2,511.2z M554.9,490.4V479c-2.2,0.2-4.1,0.7-5.8,1.6
			c-1.7,0.9-2.6,2.3-2.6,4c0,1.5,0.6,2.7,1.7,3.6C549.3,489.1,551.5,489.8,554.9,490.4z M570.3,513.1c0-1.9-0.9-3.3-2.6-4.3
			c-1.8-0.9-3.5-1.5-5.2-1.8v12.2c2.2-0.3,4-0.9,5.6-1.9C569.6,516.4,570.3,514.9,570.3,513.1z"/>
	</g>
	<g>
		<path class="st2" d="M671.8,511.2c0,5.5-2.3,10.3-7,14.3c-4.7,4-10.8,6.2-18.5,6.7V550h-8.6v-17.6c-3.7,0-7.9-0.5-12.7-1.3
			c-4.8-0.9-8.6-1.9-11.3-3.2v-14.4h2.2c3,1.6,6.5,3,10.4,3.9c3.9,1,7.8,1.6,11.7,1.9v-13.5l-4.8-1.1c-3-0.7-5.8-1.5-8.3-2.4
			c-2.5-0.9-4.7-2.1-6.6-3.6c-1.8-1.5-3.3-3.4-4.3-5.6c-1-2.2-1.5-4.9-1.5-8.2c0-4.9,2.2-9.1,6.7-12.5c4.5-3.5,10.6-5.6,18.6-6.3
			v-11.5h8.6v11.4c3,0.1,6.5,0.6,10.6,1.3c4.1,0.7,7.2,1.6,9.6,2.5V484h-2.2c-2.3-1.3-5-2.5-8.1-3.3c-3.1-0.9-6.4-1.4-9.9-1.7v12.5
			l3.9,0.8c7.4,1.4,12.9,3.6,16.4,6.6C670.1,501.8,671.8,505.9,671.8,511.2z M638.5,490.4V479c-2.2,0.2-4.1,0.7-5.8,1.6
			c-1.7,0.9-2.6,2.3-2.6,4c0,1.5,0.6,2.7,1.7,3.6C632.9,489.1,635.1,489.8,638.5,490.4z M654,513.1c0-1.9-0.9-3.3-2.6-4.3
			c-1.8-0.9-3.5-1.5-5.2-1.8v12.2c2.2-0.3,4-0.9,5.6-1.9C653.2,516.4,654,514.9,654,513.1z"/>
	</g>
</g>
<g>
	<path class="st2" d="M678.7,267.5c0,5.6-2.4,10.4-7.1,14.4c-4.7,4-10.9,6.3-18.7,6.8v18h-8.6V289c-3.7,0-8-0.5-12.9-1.3
		c-4.9-0.9-8.7-1.9-11.4-3.2v-14.5h2.2c3.1,1.7,6.5,3,10.5,4c4,1,7.9,1.6,11.8,1.9v-13.6l-4.8-1.1c-3-0.7-5.9-1.5-8.4-2.4
		c-2.6-0.9-4.8-2.2-6.6-3.7c-1.9-1.5-3.3-3.4-4.3-5.6c-1-2.2-1.5-5-1.5-8.3c0-4.9,2.3-9.2,6.8-12.7c4.5-3.5,10.8-5.6,18.7-6.4v-11.6
		h8.6v11.5c3.1,0.1,6.6,0.6,10.7,1.3c4.1,0.7,7.3,1.6,9.7,2.5v14.3h-2.2c-2.4-1.4-5.1-2.5-8.2-3.4c-3.1-0.9-6.4-1.5-10-1.7v12.6
		l4,0.8c7.5,1.5,13,3.7,16.5,6.6C676.9,258,678.7,262.1,678.7,267.5z M645,246.5V235c-2.2,0.2-4.2,0.7-5.9,1.7
		c-1.7,0.9-2.6,2.3-2.6,4c0,1.6,0.6,2.8,1.7,3.6C639.4,245.1,641.6,245.9,645,246.5z M660.6,269.4c0-1.9-0.9-3.4-2.7-4.3
		c-1.8-0.9-3.5-1.6-5.3-1.8v12.3c2.2-0.3,4.1-0.9,5.6-1.9C659.9,272.7,660.6,271.3,660.6,269.4z"/>
</g>
<g>
	<path class="st2" d="M593.8,267.5c0,5.6-2.4,10.4-7.1,14.4c-4.7,4-10.9,6.3-18.7,6.8v18h-8.6V289c-3.7,0-8-0.5-12.9-1.3
		c-4.9-0.9-8.7-1.9-11.4-3.2v-14.5h2.2c3.1,1.7,6.5,3,10.5,4c4,1,7.9,1.6,11.8,1.9v-13.6l-4.8-1.1c-3-0.7-5.9-1.5-8.4-2.4
		c-2.6-0.9-4.8-2.2-6.6-3.7c-1.9-1.5-3.3-3.4-4.3-5.6c-1-2.2-1.5-5-1.5-8.3c0-4.9,2.3-9.2,6.8-12.7c4.5-3.5,10.8-5.6,18.7-6.4v-11.6
		h8.6v11.5c3.1,0.1,6.6,0.6,10.7,1.3c4.1,0.7,7.3,1.6,9.7,2.5v14.3h-2.2c-2.4-1.4-5.1-2.5-8.2-3.4c-3.1-0.9-6.4-1.5-10-1.7v12.6
		l4,0.8c7.5,1.5,13,3.7,16.5,6.6C592,258,593.8,262.1,593.8,267.5z M560.1,246.5V235c-2.2,0.2-4.2,0.7-5.9,1.7
		c-1.7,0.9-2.6,2.3-2.6,4c0,1.6,0.6,2.8,1.7,3.6C554.4,245.1,556.7,245.9,560.1,246.5z M575.7,269.4c0-1.9-0.9-3.4-2.7-4.3
		c-1.8-0.9-3.5-1.6-5.3-1.8v12.3c2.2-0.3,4.1-0.9,5.6-1.9C574.9,272.7,575.7,271.3,575.7,269.4z"/>
</g>
<g>
	<path class="st2" d="M925.4,269.1c0,5.6-2.4,10.4-7.1,14.4c-4.7,4-10.9,6.3-18.7,6.8v18H891v-17.7c-3.7,0-8-0.5-12.9-1.3
		c-4.9-0.9-8.7-1.9-11.4-3.2v-14.5h2.2c3.1,1.7,6.5,3,10.5,4c4,1,7.9,1.6,11.8,1.9v-13.6l-4.8-1.1c-3-0.7-5.9-1.5-8.4-2.4
		c-2.6-0.9-4.8-2.2-6.6-3.7c-1.9-1.5-3.3-3.4-4.3-5.6c-1-2.2-1.5-5-1.5-8.3c0-4.9,2.3-9.2,6.8-12.7c4.5-3.5,10.8-5.6,18.7-6.4V212
		h8.6v11.5c3.1,0.1,6.6,0.6,10.7,1.3c4.1,0.7,7.3,1.6,9.7,2.5v14.3h-2.2c-2.4-1.4-5.1-2.5-8.2-3.4c-3.1-0.9-6.4-1.5-10-1.7v12.6
		l4,0.8c7.5,1.5,13,3.7,16.5,6.6C923.7,259.6,925.4,263.7,925.4,269.1z M891.8,248.1v-11.5c-2.2,0.2-4.2,0.7-5.9,1.7
		c-1.7,0.9-2.6,2.3-2.6,4c0,1.6,0.6,2.8,1.7,3.6C886.1,246.7,888.4,247.5,891.8,248.1z M907.4,271c0-1.9-0.9-3.4-2.7-4.3
		c-1.8-0.9-3.5-1.6-5.3-1.8v12.3c2.2-0.3,4.1-0.9,5.6-1.9C906.6,274.3,907.4,272.9,907.4,271z"/>
</g>
<text transform="matrix(1 0 0 1 1034.5566 283.6113)" class="st3 st4 st5">50%</text>
<g>
	<text transform="matrix(1 0 0 1 1035.0938 527.374)" class="st3 st4 st5">10%</text>
</g>
<text transform="matrix(1 0 0 1 112.0532 135.2646)"><tspan x="0" y="0" class="st6 st7 st8">CEPA实施后</tspan><tspan x="222.6" y="0" class="st9 st7 st8">香港制片方能获得的内地票房收入：</tspan></text>
<text transform="matrix(1 0 0 1 103.5728 408.7822)"><tspan x="0" y="0" class="st6 st7 st8">CEPA实施前</tspan><tspan x="222.6" y="0" class="st9 st7 st8">香港制片方能获得的内地票房收入：</tspan></text>
<text transform="matrix(1 0 0 1 113.1821 653.1572)" class="st10 st7 st11">（数据来源：中国电影产业报告）</text>
</svg>
