<?xml version="1.0" encoding="utf-8"?>
<!-- Generator: Adobe Illustrator 21.0.0, SVG Export Plug-In . SVG Version: 6.00 Build 0)  -->
<svg version="1.1" id="图层_1" xmlns="http://www.w3.org/2000/svg" xmlns:xlink="http://www.w3.org/1999/xlink" x="0px" y="0px"
	 viewBox="0 0 960 600" style="enable-background:new 0 0 960 600;" xml:space="preserve">
<style type="text/css">
	.st0{fill:#9A000C;}
	.st1{font-family:'MicrosoftYaHeiLight';}
	.st2{font-size:100px;}
	.st3{fill:#96000C;}
	.st4{font-size:92px;}
	.st5{fill:#7F001B;}
	.st6{font-size:88px;}
	.st7{fill:#6E6667;}
	.st8{fill:#7F000A;}
	.st9{fill:#6D000E;}
	.st10{font-size:83px;}
	.st11{font-size:77px;}
	.st12{font-size:70px;}
	.st13{font-size:62px;}
	.st14{fill:#6D0008;}
	.st15{font-size:51px;}
	.st16{font-size:36px;}
</style>
<g transform="translate(480,300)">
	<text transform="matrix(0.5 -0.866 0.866 0.5 -266.5 74.9519)" class="st0 st1 st2">黄奕</text>
	<text transform="matrix(1 0 0 1 -303.5 168)" class="st3 st1 st4">井柏然</text>
	<text transform="matrix(0.5 0.866 -0.866 0.5 85.5005 -186.7366)" class="st5 st1 st6">黄晓明</text>
	<text transform="matrix(0.866 -0.5 0.5 0.866 -157.1577 -70)" class="st7 st1 st6">张震</text>
	<text transform="matrix(0.866 -0.5 0.5 0.866 -120.7365 11.5)" class="st8 st1 st6">佟大为</text>
	<text transform="matrix(0.5 0.866 -0.866 0.5 10.5005 -31.7366)" class="st7 st1 st6">冯绍峰</text>
	<text transform="matrix(0.866 0.5 -0.5 0.866 -90.1574 55)" class="st9 st1 st6">周迅</text>
	<text transform="matrix(0.866 -0.5 0.5 0.866 194.0899 101.125)" class="st7 st1 st10">赵薇</text>
	<text transform="matrix(1 0 0 1 -34.25 199)" class="st7 st1 st10">胡军</text>
	<text transform="matrix(1 0 0 1 -425.25 -50)" class="st7 st1 st10">邓超</text>
	<text transform="matrix(0.5 0.866 -0.866 0.5 253.688 -102.0195)" class="st7 st1 st11">张静初</text>
	<text transform="matrix(0.5 0.866 -0.866 0.5 -337.8745 -210.0129)" class="st7 st1 st11">袁泉</text>
	<text transform="matrix(0.5 0.866 -0.866 0.5 273.688 -217.0195)" class="st7 st1 st11">李冰冰</text>
	<text transform="matrix(0.866 -0.5 0.5 0.866 212.9871 174.875)" class="st7 st1 st11">孙俪</text>
	<text transform="matrix(0.5 -0.866 0.866 0.5 309.75 253.4665)" class="st7 st1 st12">黄渤</text>
	<text transform="matrix(0.866 0.5 -0.5 0.866 -398.4665 178.75)" class="st7 st1 st12">宋佳</text>
	<text transform="matrix(0.866 -0.5 0.5 0.866 -202.4663 86.25)" class="st7 st1 st12">闫妮</text>
	<text transform="matrix(0.866 -0.5 0.5 0.866 -198.4053 -141.125)" class="st7 st1 st13">张雨绮</text>
	<text transform="matrix(1 0 0 1 -230.75 232)" class="st7 st1 st13">范冰冰</text>
	<text transform="matrix(0.5 -0.866 0.866 0.5 -406.6875 161.6882)" class="st14 st1 st15">章子怡</text>
	<text transform="matrix(0.866 0.5 -0.5 0.866 161.3118 -213.6875)" class="st7 st1 st15">李宇春</text>
	<text transform="matrix(0.866 -0.5 0.5 0.866 -388.0739 32.25)" class="st7 st1 st16">白百何</text>
</g>
</svg>
