<?xml version="1.0" encoding="utf-8"?>
<!-- Generator: Adobe Illustrator 21.0.0, SVG Export Plug-In . SVG Version: 6.00 Build 0)  -->
<svg version="1.1" id="图层_1" xmlns="http://www.w3.org/2000/svg" xmlns:xlink="http://www.w3.org/1999/xlink" x="0px" y="0px"
	 viewBox="0 0 960 600" style="enable-background:new 0 0 960 600;" xml:space="preserve">
<style type="text/css">
	.st0{fill:#B60004;}
	.st1{font-family:'MicrosoftYaHeiLight';}
	.st2{font-size:101.4799px;}
	.st3{fill:#C30005;}
	.st4{font-size:93.3615px;}
	.st5{fill:#BF001A;}
	.st6{font-size:89.3023px;}
	.st7{fill:#C30015;}
	.st8{fill:#BF000A;}
	.st9{fill:#D10011;}
	.st10{fill:#B6000E;}
	.st11{fill:#D1CCCE;}
	.st12{font-size:84.2283px;}
	.st13{font-size:69.7016px;}
	.st14{font-size:78.1395px;}
	.st15{font-size:67.1175px;}
	.st16{font-size:71.0359px;}
	.st17{font-size:36.5328px;}
	.st18{font-size:51.7548px;}
	.st19{font-size:62.9175px;}
</style>
<g transform="translate(480,300)scale(1.0147991180419922,1.0147991180419922)">
	<text transform="matrix(0.9854 0 0 0.9854 -199.6937 -112.9274)" class="st0 st1 st2">黄奕</text>
	<text transform="matrix(0.9854 0 0 0.9854 -127.8708 -18.7171)" class="st3 st1 st4">井柏然</text>
	<text transform="matrix(0.9854 0 0 0.9854 -238.2043 72.5706)" class="st5 st1 st6">黄晓明</text>
	<text transform="matrix(0.9854 0 0 0.9854 179.3459 -24.9419)" class="st7 st1 st6">张震</text>
	<text transform="matrix(0.9854 0 0 0.9854 42.8916 68.269)" class="st8 st1 st6">佟大为</text>
	<text transform="matrix(0.9854 0 0 0.9854 -50.4689 159.6)" class="st9 st1 st6">冯绍峰</text>
	<text transform="matrix(0.9854 0 0 0.9854 22.0001 -113.8984)" class="st10 st1 st6">周迅</text>
	<text transform="matrix(0.9854 0 0 0.9854 -402.2502 61.9999)" class="st11 st1 st12">赵薇</text>
	<text transform="matrix(0.9854 0 0 0.9854 -214.2502 154.0002)" class="st11 st1 st12">胡军</text>
	<text transform="matrix(0.9854 0 0 0.9854 -393.2501 152.9994)" class="st11 st1 st12">邓超</text>
	<text transform="matrix(1.0454 0 0 0.9854 -149.6106 -210.1324)" class="st11 st1 st13">张静初</text>
	<text transform="matrix(0.9854 0 0 0.9854 79.25 -193.0002)" class="st11 st1 st14">袁泉</text>
	<text transform="matrix(1.0206 0 0 0.9854 -384.8438 -102.0551)" class="st11 st1 st15">李冰冰</text>
	<text transform="matrix(0.9854 0 0 0.9854 213.1041 -120.9565)" class="st11 st1 st14">孙俪</text>
	<text transform="matrix(0.9854 0 0 0.9854 -312.2958 -200.4087)" class="st11 st1 st16">黄渤</text>
	<text transform="matrix(0.9854 0 0 0.9854 -429.1649 -28.35)" class="st11 st1 st16">宋佳</text>
	<text transform="matrix(0.9854 0 0 0.9854 -205.5003 197.9995)" class="st11 st1 st17">白百何</text>
	<text transform="matrix(0.9854 0 0 0.9854 -348.5003 221.9998)" class="st11 st1 st16">闫妮</text>
	<text transform="matrix(0.9854 0 0 0.9854 -281.6233 -20.496)" class="st11 st1 st18">章子怡</text>
	<text transform="matrix(0.9854 0 0 0.9854 110.4687 231.6894)" class="st11 st1 st18">李宇春</text>
	<text transform="matrix(0.9854 0 0 0.9854 250.2497 -197.0001)" class="st11 st1 st16">江一燕</text>
	<text transform="matrix(0.9854 0 0 0.9854 -80.7503 216.9996)" class="st11 st1 st19">王宝强</text>
	<text transform="matrix(0.9854 0 0 0.9854 229.2499 130.9998)" class="st11 st1 st19">张雨绮</text>
	<text transform="matrix(0.9854 0 0 0.9854 250.2497 194.0001)" class="st11 st1 st19">范冰冰</text>
</g>
</svg>
